<svg width="16" height="16" viewBox="0 0 16 16" fill="none" xmlns="http://www.w3.org/2000/svg">
<path d="M10.8125 2.9375C12.0551 2.9375 13.0625 3.94486 13.0625 5.1875M15.3125 5.1875C15.3125 7.67278 13.2978 9.6875 10.8125 9.6875C10.5494 9.6875 10.2917 9.66493 10.041 9.62162C9.61871 9.54866 9.17151 9.64099 8.8685 9.944L6.875 11.9375H5.1875V13.625H3.5V15.3125H0.6875V13.199C0.6875 12.7514 0.86529 12.3222 1.18176 12.0057L6.056 7.1315C6.35901 6.82849 6.45134 6.38129 6.37838 5.95903C6.33507 5.70834 6.3125 5.45056 6.3125 5.1875C6.3125 2.70222 8.32722 0.6875 10.8125 0.6875C13.2978 0.6875 15.3125 2.70222 15.3125 5.1875Z" stroke="black" stroke-linecap="round" stroke-linejoin="round"/>
</svg>
