<svg width="22" height="21" viewBox="0 0 22 21" fill="none" xmlns="http://www.w3.org/2000/svg">
<path d="M8.8132 14.4038L8 17.25L7.1868 14.4038C6.75968 12.9089 5.59112 11.7403 4.09619 11.3132L1.25 10.5L4.09619 9.6868C5.59113 9.25968 6.75968 8.09112 7.1868 6.59619L8 3.75L8.8132 6.59619C9.24032 8.09113 10.4089 9.25968 11.9038 9.6868L14.75 10.5L11.9038 11.3132C10.4089 11.7403 9.24032 12.9089 8.8132 14.4038Z" stroke="#2964BD" stroke-width="1.5" stroke-linecap="round" stroke-linejoin="round"/>
<path d="M17.2589 7.21454L17 8.25L16.7411 7.21454C16.4388 6.00533 15.4947 5.06117 14.2855 4.75887L13.25 4.5L14.2855 4.24113C15.4947 3.93883 16.4388 2.99467 16.7411 1.78546L17 0.75L17.2589 1.78546C17.5612 2.99467 18.5053 3.93883 19.7145 4.24113L20.75 4.5L19.7145 4.75887C18.5053 5.06117 17.5612 6.00533 17.2589 7.21454Z" stroke="#2964BD" stroke-width="1.5" stroke-linecap="round" stroke-linejoin="round"/>
<path d="M15.8942 19.0673L15.5 20.25L15.1058 19.0673C14.8818 18.3954 14.3546 17.8682 13.6827 17.6442L12.5 17.25L13.6827 16.8558C14.3546 16.6318 14.8818 16.1046 15.1058 15.4327L15.5 14.25L15.8942 15.4327C16.1182 16.1046 16.6454 16.6318 17.3173 16.8558L18.5 17.25L17.3173 17.6442C16.6454 17.8682 16.1182 18.3954 15.8942 19.0673Z" stroke="#2964BD" stroke-width="1.5" stroke-linecap="round" stroke-linejoin="round"/>
</svg>
