<svg width="16" height="15" viewBox="0 0 16 15" fill="none" xmlns="http://www.w3.org/2000/svg">
<path d="M5.46875 7C5.46875 7.15533 5.34283 7.28125 5.1875 7.28125C5.03217 7.28125 4.90625 7.15533 4.90625 7C4.90625 6.84467 5.03217 6.71875 5.1875 6.71875C5.34283 6.71875 5.46875 6.84467 5.46875 7ZM5.46875 7H5.1875M8.28125 7C8.28125 7.15533 8.15533 7.28125 8 7.28125C7.84467 7.28125 7.71875 7.15533 7.71875 7C7.71875 6.84467 7.84467 6.71875 8 6.71875C8.15533 6.71875 8.28125 6.84467 8.28125 7ZM8.28125 7H8M11.0938 7C11.0938 7.15533 10.9678 7.28125 10.8125 7.28125C10.6572 7.28125 10.5312 7.15533 10.5312 7C10.5312 6.84467 10.6572 6.71875 10.8125 6.71875C10.9678 6.71875 11.0938 6.84467 11.0938 7ZM11.0938 7H10.8125M14.75 7C14.75 10.4173 11.7279 13.1875 8 13.1875C7.3344 13.1875 6.6913 13.0992 6.08388 12.9347C5.35262 13.4484 4.46151 13.75 3.5 13.75C3.35059 13.75 3.20282 13.7427 3.05725 13.7285C2.9375 13.7168 2.81885 13.7004 2.70184 13.6795C3.06449 13.2515 3.32208 12.732 3.43541 12.1606C3.5034 11.8178 3.33553 11.4849 3.08513 11.2412C1.94728 10.1336 1.25 8.64145 1.25 7C1.25 3.58274 4.27208 0.8125 8 0.8125C11.7279 0.8125 14.75 3.58274 14.75 7Z" stroke="#2964BD" stroke-linecap="round" stroke-linejoin="round"/>
</svg>
