<svg width="16" height="16" viewBox="0 0 16 16" fill="none" xmlns="http://www.w3.org/2000/svg">
<path d="M5.1875 1.25V2.375M2.375 5.1875H1.25M14.75 5.1875H13.625M2.375 8H1.25M14.75 8H13.625M2.375 10.8125H1.25M14.75 10.8125H13.625M5.1875 13.625V14.75M8 1.25V2.375M8 13.625V14.75M10.8125 1.25V2.375M10.8125 13.625V14.75M4.0625 13.625H11.9375C12.8695 13.625 13.625 12.8695 13.625 11.9375V4.0625C13.625 3.13052 12.8695 2.375 11.9375 2.375H4.0625C3.13052 2.375 2.375 3.13052 2.375 4.0625V11.9375C2.375 12.8695 3.13052 13.625 4.0625 13.625ZM4.625 4.625H11.375V11.375H4.625V4.625Z" stroke="black" stroke-linecap="round" stroke-linejoin="round"/>
</svg>
