<svg width="16" height="16" viewBox="0 0 16 16" fill="none" xmlns="http://www.w3.org/2000/svg">
<path d="M1.25 8.84375C1.25 8.37776 1.62776 8 2.09375 8H3.78125C4.24724 8 4.625 8.37776 4.625 8.84375V13.9062C4.625 14.3722 4.24724 14.75 3.78125 14.75H2.09375C1.62776 14.75 1.25 14.3722 1.25 13.9062V8.84375Z" stroke="#2964BD" stroke-linecap="round" stroke-linejoin="round"/>
<path d="M6.3125 5.46875C6.3125 5.00276 6.69026 4.625 7.15625 4.625H8.84375C9.30974 4.625 9.6875 5.00276 9.6875 5.46875V13.9062C9.6875 14.3722 9.30974 14.75 8.84375 14.75H7.15625C6.69026 14.75 6.3125 14.3722 6.3125 13.9062V5.46875Z" stroke="#2964BD" stroke-linecap="round" stroke-linejoin="round"/>
<path d="M11.375 2.09375C11.375 1.62776 11.7528 1.25 12.2188 1.25H13.9062C14.3722 1.25 14.75 1.62776 14.75 2.09375V13.9062C14.75 14.3722 14.3722 14.75 13.9062 14.75H12.2188C11.7528 14.75 11.375 14.3722 11.375 13.9062V2.09375Z" stroke="#2964BD" stroke-linecap="round" stroke-linejoin="round"/>
</svg>
