<svg width="16" height="14" viewBox="0 0 16 14" fill="none" xmlns="http://www.w3.org/2000/svg">
<path d="M14.75 7C14.75 6.06802 13.9945 5.3125 13.0625 5.3125H10.25C10.25 6.55514 9.24264 7.5625 8 7.5625C6.75736 7.5625 5.75 6.55514 5.75 5.3125H2.9375C2.00552 5.3125 1.25 6.06802 1.25 7M14.75 7V11.5C14.75 12.432 13.9945 13.1875 13.0625 13.1875H2.9375C2.00552 13.1875 1.25 12.432 1.25 11.5V7M14.75 7V4.75M1.25 7V4.75M14.75 4.75C14.75 3.81802 13.9945 3.0625 13.0625 3.0625H2.9375C2.00552 3.0625 1.25 3.81802 1.25 4.75M14.75 4.75V2.5C14.75 1.56802 13.9945 0.8125 13.0625 0.8125H2.9375C2.00552 0.8125 1.25 1.56802 1.25 2.5V4.75" stroke="#2964BD" stroke-linecap="round" stroke-linejoin="round"/>
</svg>
